<svg width="64" height="64" viewBox="0 0 64 64" fill="none" xmlns="http://www.w3.org/2000/svg">
<g id="Icon / Facebook">
<path id="Vector" d="M43.75 15.9092H35.7954C34.331 15.9092 33.1439 17.0963 33.1439 18.5607V26.5152H43.75C44.0515 26.5086 44.3376 26.6489 44.5168 26.8915C44.6961 27.1341 44.7464 27.4486 44.6515 27.7349L42.6894 33.5683C42.5085 34.1036 42.0082 34.4656 41.4432 34.4698H33.1439V54.3562C33.1439 55.0883 32.5502 55.682 31.8181 55.682H25.1893C24.4572 55.682 23.8636 55.0883 23.8636 54.3562V34.4698H19.8863C19.1541 34.4698 18.5605 33.8761 18.5605 33.144V27.841C18.5605 27.1089 19.1541 26.5152 19.8863 26.5152H23.8636V18.5607C23.8636 12.7031 28.6122 7.95459 34.4697 7.95459H43.75C44.4821 7.95459 45.0757 8.54816 45.0757 9.28035V14.5834C45.0757 15.3156 44.4821 15.9092 43.75 15.9092Z" fill="#14FFEC"/>
</g>
</svg>
