<svg width="65" height="64" viewBox="0 0 65 64" fill="none" xmlns="http://www.w3.org/2000/svg">
<g id="Icon / Instagram">
<path id="Vector" fill-rule="evenodd" clip-rule="evenodd" d="M42.8799 7.95459H21.6678C14.3458 7.95459 8.41016 13.8902 8.41016 21.2122V42.4244C8.41016 49.7463 14.3458 55.682 21.6678 55.682H42.8799C50.2018 55.682 56.1375 49.7463 56.1375 42.4244V21.2122C56.1375 13.8902 50.2018 7.95459 42.8799 7.95459ZM51.4974 42.4244C51.4828 47.1775 47.633 51.0272 42.8799 51.0418H21.6678C16.9145 51.0272 13.0649 47.1775 13.0503 42.4244V21.2122C13.0649 16.4589 16.9145 12.6093 21.6678 12.5948H42.8799C47.633 12.6093 51.4828 16.4589 51.4974 21.2122V42.4244ZM44.8686 21.8751C46.333 21.8751 47.5201 20.6879 47.5201 19.2236C47.5201 17.7592 46.333 16.572 44.8686 16.572C43.4041 16.572 42.217 17.7592 42.217 19.2236C42.217 20.6879 43.4041 21.8751 44.8686 21.8751ZM32.2738 19.8864C25.6841 19.8864 20.342 25.2285 20.342 31.8183C20.342 38.4081 25.6841 43.7501 32.2738 43.7501C38.8637 43.7501 44.2057 38.4081 44.2057 31.8183C44.2128 28.6516 42.9579 25.6126 40.7187 23.3734C38.4795 21.1342 35.4406 19.8794 32.2738 19.8864ZM24.9822 31.8183C24.9822 35.8454 28.2467 39.11 32.2738 39.11C36.301 39.11 39.5655 35.8454 39.5655 31.8183C39.5655 27.7911 36.301 24.5266 32.2738 24.5266C28.2467 24.5266 24.9822 27.7911 24.9822 31.8183Z" fill="#14FFEC"/>
</g>
</svg>
