<svg width="64" height="64" viewBox="0 0 64 64" fill="none" xmlns="http://www.w3.org/2000/svg">
<g id="Icon / LinkedIn">
<path id="Vector" fill-rule="evenodd" clip-rule="evenodd" d="M13.6214 7.95459H50.7427C53.6716 7.95459 56.0457 10.3288 56.0457 13.2576V50.3789C56.0457 53.3078 53.6716 55.682 50.7427 55.682H13.6214C10.6926 55.682 8.31836 53.3078 8.31836 50.3789V13.2576C8.31836 10.3288 10.6926 7.95459 13.6214 7.95459ZM21.576 47.7274C22.3082 47.7274 22.9017 47.1337 22.9017 46.4016V27.841C22.9017 27.1089 22.3082 26.5152 21.576 26.5152H17.5987C16.8665 26.5152 16.2729 27.1089 16.2729 27.841V46.4016C16.2729 47.1337 16.8665 47.7274 17.5987 47.7274H21.576ZM19.5873 23.8637C17.3907 23.8637 15.61 22.083 15.61 19.8864C15.61 17.6898 17.3907 15.9092 19.5873 15.9092C21.7839 15.9092 23.5646 17.6898 23.5646 19.8864C23.5646 22.083 21.7839 23.8637 19.5873 23.8637ZM46.7654 47.7274C47.4975 47.7274 48.0912 47.1337 48.0912 46.4016V34.2046C48.1773 29.9908 45.0621 26.3946 40.879 25.8789C37.9544 25.6117 35.1207 26.9777 33.5078 29.4319V27.841C33.5078 27.1089 32.9141 26.5152 32.182 26.5152H28.2048C27.4727 26.5152 26.879 27.1089 26.879 27.841V46.4016C26.879 47.1337 27.4727 47.7274 28.2048 47.7274H32.182C32.9141 47.7274 33.5078 47.1337 33.5078 46.4016V36.4584C33.5078 34.2619 35.2886 32.4812 37.4851 32.4812C39.6816 32.4812 41.4624 34.2619 41.4624 36.4584V46.4016C41.4624 47.1337 42.056 47.7274 42.7881 47.7274H46.7654Z" fill="#14FFEC"/>
</g>
</svg>
