<svg width="65" height="64" viewBox="0 0 65 64" fill="none" xmlns="http://www.w3.org/2000/svg">
<g id="Icon / Twitter">
<path id="Vector" d="M56.5188 17.8114C55.2875 19.454 53.7989 20.8869 52.1107 22.0548C52.1107 22.4839 52.1107 22.9129 52.1107 23.3659C52.1242 31.1583 49.0116 38.6303 43.4707 44.1068C37.9296 49.5832 30.4236 52.6059 22.6357 52.4972C18.1333 52.5123 13.6885 51.4844 9.64956 49.4936C9.43177 49.3984 9.29132 49.1831 9.29214 48.9453V48.683C9.29214 48.3407 9.56951 48.0634 9.91167 48.0634C14.3375 47.9173 18.6053 46.3828 22.1115 43.677C18.1056 43.5961 14.5012 41.223 12.8425 37.5739C12.7587 37.3748 12.7848 37.146 12.9113 36.9707C13.0379 36.7955 13.2466 36.6989 13.462 36.7159C14.6795 36.8382 15.9092 36.7249 17.0838 36.3821C12.6616 35.4641 9.33878 31.7928 8.86323 27.2993C8.84634 27.0837 8.94293 26.8751 9.11815 26.7483C9.29333 26.6218 9.52181 26.5956 9.72105 26.6796C10.9078 27.2033 12.1888 27.4791 13.4858 27.49C9.6109 24.9468 7.93718 20.1093 9.41127 15.7135C9.56344 15.2864 9.92901 14.9708 10.3736 14.8829C10.8182 14.7949 11.2764 14.9474 11.5796 15.2844C16.8086 20.8496 23.9933 24.1659 31.6187 24.534C31.4235 23.7546 31.3275 22.9536 31.3328 22.1501C31.4042 17.9368 34.0111 14.1836 37.9333 12.6475C41.8551 11.1113 46.3161 12.0964 49.2277 15.1414C51.2121 14.7633 53.1307 14.0967 54.9224 13.1628C55.0536 13.0808 55.2201 13.0808 55.3514 13.1628C55.4333 13.2941 55.4333 13.4605 55.3514 13.5918C54.4835 15.5791 53.0175 17.2459 51.1577 18.3597C52.7863 18.1708 54.3862 17.7866 55.9233 17.2154C56.0527 17.1273 56.2227 17.1273 56.3521 17.2154C56.4605 17.265 56.5416 17.3598 56.5737 17.4747C56.6058 17.5895 56.5857 17.7127 56.5188 17.8114Z" fill="#14FFEC"/>
</g>
</svg>
