<svg width="47" height="47" viewBox="0 0 47 47" fill="none" xmlns="http://www.w3.org/2000/svg">
<g id="whatsapp1 1" clip-path="url(#clip0_603_1570)">
<g id="Layer 2">
<g id="OBJECTS">
<path id="Vector" fill-rule="evenodd" clip-rule="evenodd" d="M24.0459 2.86328C12.8159 2.86328 3.6875 11.9261 3.6875 23.069C3.68538 27.3298 5.04403 31.48 7.56545 34.9146L5.01901 42.416L12.8439 39.9304C16.1712 42.1146 20.0657 43.2756 24.0459 43.2698C35.2709 43.2698 44.4043 34.207 44.4043 23.0756C44.4043 11.9441 35.2693 2.86985 24.0459 2.86985V2.86328Z" fill="#14FFEC"/>
<path id="Vector_2" fill-rule="evenodd" clip-rule="evenodd" d="M47 22.895C47 35.5369 36.6698 45.7884 23.9277 45.7884C20.0293 45.7954 16.1925 44.8155 12.7749 42.9398L0 47L4.16362 34.7176C1.99356 31.157 0.848227 27.0665 0.85374 22.8966C0.85374 10.2498 11.184 0 23.9277 0C36.6714 0 47 10.2498 47 22.895ZM23.9277 3.64645C13.2297 3.64645 4.5281 12.2807 4.5281 22.895C4.52567 26.9547 5.82054 30.9089 8.22381 34.1808L5.8005 41.3276L13.2543 38.9601C16.424 41.0412 20.1342 42.1474 23.9261 42.1419C34.6208 42.1419 43.324 33.5076 43.324 22.895C43.324 12.2824 34.6224 3.64645 23.9261 3.64645H23.9277ZM35.5845 28.1685C35.4417 27.9337 35.0657 27.7941 34.5009 27.5118C33.9361 27.2294 31.1533 25.8699 30.6361 25.6861C30.1189 25.5022 29.738 25.4053 29.3637 25.9668C28.9894 26.5283 27.9025 27.7925 27.5709 28.1668C27.2392 28.5412 26.9141 28.5871 26.3477 28.3064C25.7813 28.0256 23.9572 27.433 21.7983 25.5235C20.5639 24.3892 19.5034 23.0792 18.6509 21.6357C18.3226 21.0759 18.6181 20.7721 18.8988 20.4865C19.1533 20.2353 19.4653 19.8297 19.7477 19.5014C19.9805 19.2177 20.1713 18.902 20.3141 18.5639C20.3899 18.409 20.4251 18.2373 20.4165 18.065C20.4079 17.8927 20.3557 17.7254 20.2648 17.5788C20.1253 17.2981 18.9924 14.5366 18.5212 13.4119C18.05 12.2873 17.5673 12.3447 17.239 12.3447C16.9243 12.3593 16.6107 12.3922 16.2999 12.4433C16.2999 12.4433 15.1654 12.5828 14.6482 13.1443C14.131 13.7058 12.678 15.0652 12.678 17.8235C12.678 20.5817 14.7024 23.2546 14.9766 23.6272C15.2507 23.9999 18.889 29.8546 24.6386 32.1006C30.3882 34.3466 30.3849 33.5979 31.4258 33.5027C32.4667 33.4075 34.7718 32.1466 35.243 30.8364C35.7142 29.5263 35.7159 28.4016 35.5714 28.1685H35.5845Z" fill="white"/>
</g>
</g>
</g>
<defs>
<clipPath id="clip0_603_1570">
<rect width="47" height="47" fill="white"/>
</clipPath>
</defs>
</svg>
