<svg width="32" height="32" viewBox="0 0 32 32" fill="none" xmlns="http://www.w3.org/2000/svg">
<g id="Icon / Facebook">
<path id="Vector" d="M21.875 8.04586H17.8978C17.1655 8.04586 16.572 8.63946 16.572 9.37169V13.3492H21.875C22.0258 13.3459 22.1688 13.416 22.2584 13.5373C22.3481 13.6586 22.3733 13.8159 22.3258 13.9591L21.3447 16.8759C21.2543 17.1436 21.0041 17.3246 20.7216 17.3267H16.572V27.2704C16.572 27.6365 16.2752 27.9334 15.9091 27.9334H12.5947C12.2286 27.9334 11.9318 27.6365 11.9318 27.2704V17.3267H9.9432C9.5771 17.3267 9.28032 17.0298 9.28032 16.6638V14.0121C9.28032 13.646 9.5771 13.3492 9.9432 13.3492H11.9318V9.37169C11.9318 6.44274 14.3061 4.06836 17.2349 4.06836H21.875C22.2411 4.06836 22.5379 4.36516 22.5379 4.73128V7.38294C22.5379 7.74906 22.2411 8.04586 21.875 8.04586Z" fill="#14FFEC"/>
</g>
</svg>
