<svg width="174" height="61" viewBox="0 0 174 61" fill="none" xmlns="http://www.w3.org/2000/svg">
<g id="Logo with wordmark white 1" clip-path="url(#clip0_656_38667)">
<g id="Layer 2">
<g id="Layer 1">
<path id="Vector" d="M12.191 61.0001H0V7.50938C0 7.50938 17.5331 -2.52705 35.5156 0.60968C50.6379 3.24764 54.9116 10.0919 55.9855 14.2594C31.0227 17.906 17.8728 34.953 12.191 61.0001Z" fill="#14FFEC"/>
<path id="Vector_2" d="M52.7364 25.354C52.3934 25.5295 52.0224 25.6421 51.6405 25.6865C45.3834 26.2407 24.9354 32.5585 25.7079 60.9997H14.158C14.2968 60.3679 14.4392 59.7417 14.5853 59.121C20.1137 35.7617 32.2445 20.3275 54.5554 16.4481C55.0631 16.3594 55.5782 16.2763 56.1005 16.1987C57.1142 19.4352 55.6129 23.83 52.7254 25.3318" fill="white"/>
<path id="Vector_3" d="M121.379 39.4139H124.924V41.5032H124.995C125.503 40.7128 126.21 40.0738 127.044 39.6522C127.964 39.1813 128.983 38.9454 130.014 38.965C130.853 38.9614 131.684 39.137 132.452 39.4804C133.221 39.824 133.914 40.3196 134.49 40.9379C135.086 41.5824 135.556 42.3344 135.876 43.1547C136.221 44.0519 136.394 45.0074 136.386 45.97V55.9843H132.863V46.7847C132.863 45.3068 132.518 44.2335 131.827 43.5648C131.442 43.2079 130.99 42.9328 130.498 42.7558C130.006 42.5787 129.483 42.5033 128.962 42.534C128.415 42.5029 127.868 42.5907 127.357 42.7914C126.847 42.9921 126.385 43.301 126.002 43.6974C125.62 44.0938 125.325 44.5685 125.139 45.0896C124.953 45.6106 124.88 46.166 124.924 46.7182V56.012H121.401L121.379 39.4139Z" fill="white"/>
<path id="Vector_4" d="M48.2161 41.0436H48.2819C48.9074 40.2537 49.7092 39.625 50.6214 39.2092C51.5827 38.7814 52.6232 38.566 53.6733 38.5775C54.8885 38.5605 56.0927 38.8121 57.2018 39.3145C58.2427 39.7763 59.1761 40.4542 59.9414 41.3041C60.6837 42.1257 61.2606 43.0857 61.6399 44.1305C62.0084 45.1532 62.1939 46.2341 62.1878 47.3226C62.181 48.3867 61.9746 49.4398 61.5797 50.4261C61.1651 51.4749 60.5675 52.4398 59.8154 53.2747C59.0462 54.1329 58.1146 54.8264 57.0758 55.3141C55.9652 55.8256 54.7566 56.083 53.5363 56.0678C52.4512 56.0893 51.3761 55.854 50.3968 55.3806C49.555 54.989 48.8336 54.3743 48.3093 53.6016H48.2161V61.0001H44.6656V39.0208H48.2161V41.0436ZM58.0785 45.2499C57.8102 44.6055 57.4256 44.0173 56.9443 43.5153C56.4652 43.0173 55.8936 42.6199 55.2622 42.346C54.6301 42.0733 53.9496 41.9337 53.2624 41.9359C52.5912 41.9355 51.9272 42.0751 51.3118 42.346C50.6952 42.6262 50.1373 43.0231 49.6681 43.5153C49.1833 44.0144 48.7982 44.6034 48.5339 45.2499C48.2626 45.9065 48.123 46.611 48.123 47.3226C48.123 48.0342 48.2626 48.7387 48.5339 49.3953C48.7982 50.0419 49.1833 50.6308 49.6681 51.1299C50.1361 51.6221 50.6944 52.0174 51.3118 52.2937C51.926 52.569 52.5906 52.7106 53.2624 52.7094C53.9503 52.7123 54.6312 52.5708 55.2622 52.2937C55.8945 52.0239 56.4665 51.6281 56.9443 51.1299C57.4256 50.628 57.8102 50.0397 58.0785 49.3953C58.6192 48.0676 58.6192 46.5776 58.0785 45.2499Z" fill="white"/>
<path id="Vector_5" d="M78.1704 53.5459H78.1046C77.5016 54.33 76.7143 54.9492 75.8144 55.347C74.8405 55.7934 73.7824 56.0204 72.7132 56.012C71.498 56.0285 70.2939 55.7769 69.1846 55.275C68.1438 54.8132 67.2104 54.1353 66.4451 53.2854C65.7064 52.4621 65.1316 51.5024 64.752 50.459C64.37 49.439 64.1732 48.3576 64.1713 47.2669C64.18 46.2024 64.3882 45.1493 64.7849 44.1634C65.1955 43.1126 65.7935 42.147 66.5492 41.3148C67.3272 40.4497 68.2728 39.7555 69.3271 39.2754C70.44 38.7648 71.6501 38.5075 72.8721 38.5217C73.9547 38.5016 75.0274 38.7348 76.0061 39.2034C76.8549 39.6016 77.5804 40.2262 78.1046 41.01H78.1704V38.9651H81.6989V55.5908H78.1704V53.5459ZM68.3409 49.3229C68.6052 49.9695 68.9903 50.5585 69.475 51.0575C69.9519 51.5543 70.5219 51.95 71.1516 52.2214C71.7828 52.498 72.4637 52.6395 73.1515 52.637C73.8305 52.6318 74.5017 52.4894 75.1255 52.2182C75.7493 51.947 76.3133 51.5524 76.7842 51.0575C77.2489 50.5502 77.6201 49.9627 77.88 49.3229C78.4207 47.9952 78.4207 46.5052 77.88 45.1776C77.6201 44.5378 77.2489 43.9503 76.7842 43.4429C76.3196 42.9453 75.7605 42.5476 75.1404 42.2736C74.5191 42.0032 73.8498 41.8637 73.1734 41.8635C72.4862 41.8619 71.8059 42.0015 71.1736 42.2736C70.5446 42.5489 69.975 42.9462 69.497 43.4429C69.0122 43.942 68.6271 44.531 68.3628 45.1776C68.0915 45.8341 67.9518 46.5387 67.9518 47.2502C67.9518 47.9618 68.0915 48.6664 68.3628 49.3229H68.3409Z" fill="white"/>
<path id="Vector_6" d="M83.8687 38.9653H87.8026L91.4298 48.4697H91.501L95.1282 38.9653H99.0622L91.4682 56.0123L83.8687 38.9653Z" fill="white"/>
<path id="Vector_7" d="M101.166 51.9667C102.113 53.183 103.3 54.1869 104.651 54.915C105.927 55.6166 107.352 55.9968 108.804 56.0234C110.094 56.0419 111.374 55.7969 112.568 55.3029C113.63 54.8639 114.593 54.2111 115.399 53.3842C116.204 52.5573 116.835 51.5735 117.253 50.4925C118.071 48.4219 118.071 46.1124 117.253 44.0417C116.834 42.9633 116.204 41.982 115.399 41.1571C114.595 40.3322 113.634 39.6808 112.574 39.2424C111.38 38.7485 110.099 38.5034 108.81 38.522C107.84 38.5315 106.88 38.7193 105.977 39.0762C104.955 39.4783 104.014 40.0641 103.199 40.8052C102.289 41.6317 101.566 42.6467 101.079 43.7813C100.524 45.0631 100.248 46.4501 100.268 47.849V48.503H113.9C113.855 49.1077 113.686 49.6964 113.403 50.2309C113.12 50.7655 112.729 51.2341 112.256 51.6065C111.311 52.4233 110.107 52.8681 108.864 52.8589C107.925 52.857 107 52.6215 106.172 52.173C105.343 51.7246 104.637 51.0771 104.114 50.2875L101.166 51.9667ZM104.421 45.5491C104.713 44.4067 105.372 43.3949 106.295 42.6729C107.157 42.0109 108.214 41.6598 109.297 41.6753C110.369 41.6548 111.414 42.0201 112.245 42.7061C113.108 43.436 113.706 44.4366 113.943 45.5491H104.421Z" fill="white"/>
<path id="Vector_8" d="M144.879 38.6325H147.689V42.2736H144.879V48.8795C144.841 49.5764 144.957 50.273 145.218 50.919C145.462 51.4132 145.843 51.8252 146.314 52.1049L148.21 53.2133L145.898 56.0231C144.37 55.3627 142.969 54.434 141.761 53.2798C140.972 52.4097 140.577 51.1684 140.577 49.539V42.2736H138.265V38.6325H141.361V33.5894L144.889 34.9859" fill="white"/>
<path id="Vector_9" d="M151.47 43.5649V56.0121H155.47V43.5649H151.47Z" fill="white"/>
<path id="Vector_10" d="M151.47 39.9017V42.3402H155.47V38.5439L151.47 39.9017Z" fill="white"/>
<path id="Vector_11" d="M170.992 44.6787C170.555 43.9494 169.957 43.3328 169.244 42.8776C168.513 42.4421 167.676 42.2214 166.828 42.2403C166.146 42.2403 165.472 42.376 164.842 42.6398C164.213 42.9035 163.641 43.2901 163.159 43.7775C162.677 44.2648 162.295 44.8434 162.034 45.4801C161.773 46.1168 161.639 46.7993 161.639 47.4885C161.639 48.1777 161.773 48.8602 162.034 49.4969C162.295 50.1336 162.677 50.7122 163.159 51.1995C163.641 51.6869 164.213 52.0735 164.842 52.3372C165.472 52.601 166.146 52.7367 166.828 52.7367C167.671 52.75 168.501 52.5275 169.228 52.0938C169.948 51.6403 170.552 51.0213 170.992 50.2872L174 52.0938C173.251 53.2776 172.215 54.2485 170.992 54.9147C169.724 55.6462 168.288 56.0284 166.828 56.0231C165.572 56.0398 164.326 55.8024 163.162 55.3248C162.105 54.8857 161.148 54.2311 160.351 53.4017C159.592 52.605 158.998 51.6629 158.604 50.6308C157.807 48.6134 157.807 46.3636 158.604 44.3462C158.996 43.313 159.59 42.3706 160.351 41.5753C161.147 40.7442 162.104 40.0893 163.162 39.6522C164.325 39.17 165.572 38.9306 166.828 38.9484C168.283 38.908 169.722 39.2661 170.992 39.9847C172.191 40.7082 173.218 41.6903 174 42.861L170.992 44.6787Z" fill="white"/>
</g>
</g>
</g>
<defs>
<clipPath id="clip0_656_38667">
<rect width="174" height="61" fill="white"/>
</clipPath>
</defs>
</svg>
