<svg width="33" height="32" viewBox="0 0 33 32" fill="none" xmlns="http://www.w3.org/2000/svg">
<g id="Icon / Instagram">
<path id="Vector" fill-rule="evenodd" clip-rule="evenodd" d="M21.9399 4.06836H11.3338C7.67285 4.06836 4.70503 7.03634 4.70503 10.6975V21.3042C4.70503 24.9654 7.67285 27.9334 11.3338 27.9334H21.9399C25.6009 27.9334 28.5687 24.9654 28.5687 21.3042V10.6975C28.5687 7.03634 25.6009 4.06836 21.9399 4.06836ZM26.2486 21.3042C26.2413 23.6809 24.3165 25.6059 21.9399 25.6132H11.3338C8.95721 25.6059 7.03239 23.6809 7.02511 21.3042V10.6975C7.03239 8.32077 8.95721 6.39585 11.3338 6.38857H21.9399C24.3165 6.39585 26.2413 8.32077 26.2486 10.6975V21.3042ZM22.9342 11.029C23.6664 11.029 24.26 10.4354 24.26 9.70315C24.26 8.97092 23.6664 8.37732 22.9342 8.37732C22.202 8.37732 21.6085 8.97092 21.6085 9.70315C21.6085 10.4354 22.202 11.029 22.9342 11.029ZM16.6369 10.0346C13.342 10.0346 10.6709 12.7058 10.6709 16.0009C10.6709 19.296 13.342 21.9671 16.6369 21.9671C19.9318 21.9671 22.6028 19.296 22.6028 16.0009C22.6064 14.4174 21.9789 12.8978 20.8593 11.7782C19.7397 10.6585 18.2202 10.0311 16.6369 10.0346ZM12.991 16.0009C12.991 18.0145 14.6233 19.6469 16.6369 19.6469C18.6504 19.6469 20.2827 18.0145 20.2827 16.0009C20.2827 13.9872 18.6504 12.3548 16.6369 12.3548C14.6233 12.3548 12.991 13.9872 12.991 16.0009Z" fill="#14FFEC"/>
</g>
</svg>
