<svg width="32" height="32" viewBox="0 0 32 32" fill="none" xmlns="http://www.w3.org/2000/svg">
<g id="Icon / LinkedIn">
<path id="Vector" fill-rule="evenodd" clip-rule="evenodd" d="M6.81057 4.06836H25.3712C26.8356 4.06836 28.0227 5.25555 28.0227 6.72003V25.2817C28.0227 26.7462 26.8356 27.9334 25.3712 27.9334H6.81057C5.34618 27.9334 4.15905 26.7462 4.15905 25.2817V6.72003C4.15905 5.25555 5.34618 4.06836 6.81057 4.06836ZM10.7879 23.9559C11.1539 23.9559 11.4507 23.659 11.4507 23.2929V14.0121C11.4507 13.646 11.1539 13.3492 10.7879 13.3492H8.79921C8.43312 13.3492 8.13633 13.646 8.13633 14.0121V23.2929C8.13633 23.659 8.43312 23.9559 8.79921 23.9559H10.7879ZM9.79353 12.0234C8.69523 12.0234 7.80489 11.133 7.80489 10.0346C7.80489 8.93625 8.69523 8.04586 9.79353 8.04586C10.8918 8.04586 11.7822 8.93625 11.7822 10.0346C11.7822 11.133 10.8918 12.0234 9.79353 12.0234ZM23.3826 23.9559C23.7486 23.9559 24.0454 23.659 24.0454 23.2929V17.1941C24.0885 15.0871 22.5309 13.2889 20.4394 13.031C18.9771 12.8974 17.5602 13.5804 16.7538 14.8076V14.0121C16.7538 13.646 16.4569 13.3492 16.0909 13.3492H14.1022C13.7362 13.3492 13.4394 13.646 13.4394 14.0121V23.2929C13.4394 23.659 13.7362 23.9559 14.1022 23.9559H16.0909C16.4569 23.9559 16.7538 23.659 16.7538 23.2929V18.3211C16.7538 17.2227 17.6441 16.3323 18.7424 16.3323C19.8407 16.3323 20.731 17.2227 20.731 18.3211V23.2929C20.731 23.659 21.0279 23.9559 21.3939 23.9559H23.3826Z" fill="#14FFEC"/>
</g>
</svg>
