<svg width="174" height="61" viewBox="0 0 174 61" fill="none" xmlns="http://www.w3.org/2000/svg">
<g id="Logo with wordmark white 1" clip-path="url(#clip0_620_4112)">
<g id="Layer 2">
<g id="Layer 1">
<path id="Vector" d="M12.191 61.0002H0V7.50949C0 7.50949 17.5331 -2.52694 35.5156 0.609787C50.6379 3.24774 54.9116 10.092 55.9855 14.2596C31.0227 17.9061 17.8728 34.9531 12.191 61.0002Z" fill="#14FFEC"/>
<path id="Vector_2" d="M52.7366 25.3543C52.3936 25.5298 52.0226 25.6424 51.6408 25.6868C45.3836 26.241 24.9356 32.5588 25.7082 61H14.1582C14.297 60.3682 14.4395 59.742 14.5856 59.1213C20.114 35.7621 32.2447 20.3278 54.5557 16.4484C55.0634 16.3598 55.5784 16.2766 56.1008 16.1991C57.1144 19.4355 55.6131 23.8303 52.7256 25.3321" fill="white"/>
<path id="Vector_3" d="M121.379 39.4142H124.924V41.5035H124.995C125.503 40.7131 126.211 40.0741 127.044 39.6525C127.964 39.1816 128.983 38.9457 130.014 38.9653C130.854 38.9617 131.684 39.1373 132.452 39.4807C133.221 39.8243 133.914 40.3199 134.49 40.9382C135.086 41.5827 135.556 42.3347 135.877 43.155C136.222 44.0522 136.394 45.0077 136.386 45.9703V55.9846H132.863V46.785C132.863 45.3071 132.518 44.2338 131.828 43.5651C131.442 43.2082 130.99 42.9331 130.498 42.7561C130.006 42.579 129.484 42.5036 128.962 42.5343C128.415 42.5032 127.868 42.591 127.358 42.7917C126.847 42.9924 126.385 43.3013 126.002 43.6977C125.62 44.0942 125.326 44.5689 125.14 45.0899C124.954 45.611 124.88 46.1663 124.924 46.7185V56.0123H121.401L121.379 39.4142Z" fill="white"/>
<path id="Vector_4" d="M48.2165 41.0435H48.2822C48.9077 40.2536 49.7095 39.6249 50.6218 39.2091C51.5831 38.7813 52.6235 38.5659 53.6737 38.5774C54.8889 38.5604 56.0931 38.8119 57.2022 39.3144C58.2431 39.7762 59.1764 40.4541 59.9418 41.304C60.6841 42.1256 61.261 43.0856 61.6403 44.1304C62.0088 45.1531 62.1943 46.234 62.1882 47.3225C62.1814 48.3866 61.975 49.4397 61.58 50.426C61.1655 51.4748 60.5679 52.4397 59.8157 53.2745C59.0466 54.1328 58.115 54.8263 57.0762 55.314C55.9655 55.8255 54.757 56.0828 53.5367 56.0677C52.4515 56.0892 51.3764 55.8539 50.3972 55.3805C49.5554 54.9889 48.834 54.3742 48.3096 53.6015H48.2165V61H44.666V39.0207H48.2165V41.0435ZM58.0789 45.2498C57.8106 44.6054 57.426 44.0172 56.9447 43.5152C56.4656 43.0172 55.894 42.6198 55.2626 42.3459C54.6305 42.0731 53.95 41.9336 53.2627 41.9358C52.5916 41.9354 51.9276 42.075 51.3122 42.3459C50.6956 42.6261 50.1377 43.023 49.6684 43.5152C49.1837 44.0143 48.7986 44.6033 48.5343 45.2498C48.263 45.9064 48.1233 46.6109 48.1233 47.3225C48.1233 48.0341 48.263 48.7386 48.5343 49.3952C48.7986 50.0418 49.1837 50.6307 49.6684 51.1298C50.1365 51.622 50.6948 52.0173 51.3122 52.2936C51.9264 52.5689 52.5909 52.7105 53.2627 52.7093C53.9506 52.7122 54.6316 52.5707 55.2626 52.2936C55.8948 52.0238 56.4669 51.628 56.9447 51.1298C57.426 50.6279 57.8106 50.0396 58.0789 49.3952C58.6195 48.0675 58.6195 46.5775 58.0789 45.2498Z" fill="white"/>
<path id="Vector_5" d="M78.17 53.5461H78.1043C77.5013 54.3302 76.7139 54.9494 75.814 55.3472C74.8402 55.7937 73.782 56.0206 72.7128 56.0123C71.4977 56.0287 70.2936 55.7772 69.1843 55.2752C68.1434 54.8134 67.2101 54.1356 66.4447 53.2856C65.7061 52.4623 65.1312 51.5027 64.7517 50.4593C64.3696 49.4393 64.1728 48.3578 64.1709 47.2671C64.1796 46.2027 64.3879 45.1496 64.7846 44.1636C65.1951 43.1128 65.7932 42.1472 66.5488 41.3151C67.3269 40.4499 68.2724 39.7558 69.3267 39.2756C70.4396 38.7651 71.6498 38.5078 72.8717 38.5219C73.9544 38.5018 75.027 38.7351 76.0058 39.2036C76.8545 39.6018 77.58 40.2264 78.1043 41.0103H78.17V38.9653H81.6986V55.5911H78.17V53.5461ZM68.3405 49.3232C68.6048 49.9697 68.9899 50.5587 69.4747 51.0578C69.9515 51.5546 70.5215 51.9502 71.1513 52.2216C71.7824 52.4982 72.4633 52.6397 73.1511 52.6372C73.8302 52.6321 74.5013 52.4897 75.1251 52.2184C75.7489 51.9472 76.3129 51.5526 76.7838 51.0578C77.2486 50.5504 77.6197 49.9629 77.8796 49.3232C78.4203 47.9955 78.4203 46.5055 77.8796 45.1778C77.6197 44.538 77.2486 43.9506 76.7838 43.4432C76.3192 42.9455 75.7602 42.5478 75.1401 42.2738C74.5187 42.0034 73.8495 41.8639 73.1731 41.8637C72.4859 41.8622 71.8055 42.0017 71.1732 42.2738C70.5442 42.5492 69.9746 42.9464 69.4966 43.4432C69.0118 43.9423 68.6267 44.5312 68.3624 45.1778C68.0912 45.8344 67.9515 46.5389 67.9515 47.2505C67.9515 47.9621 68.0912 48.6666 68.3624 49.3232H68.3405Z" fill="white"/>
<path id="Vector_6" d="M83.8691 38.9653H87.8031L91.4303 48.4697H91.5015L95.1287 38.9653H99.0627L91.4687 56.0123L83.8691 38.9653Z" fill="white"/>
<path id="Vector_7" d="M101.166 51.9667C102.113 53.1829 103.3 54.1869 104.651 54.915C105.927 55.6165 107.352 55.9967 108.804 56.0233C110.094 56.0419 111.374 55.7969 112.568 55.3029C113.63 54.8639 114.593 54.2111 115.399 53.3842C116.204 52.5573 116.835 51.5735 117.253 50.4925C118.071 48.4219 118.071 46.1123 117.253 44.0417C116.834 42.9633 116.204 41.982 115.399 41.1571C114.595 40.3322 113.634 39.6808 112.574 39.2424C111.38 38.7484 110.099 38.5034 108.81 38.5219C107.84 38.5315 106.88 38.7193 105.977 39.0761C104.955 39.4783 104.014 40.0641 103.199 40.8052C102.289 41.6317 101.566 42.6467 101.079 43.7812C100.524 45.063 100.248 46.4501 100.268 47.849V48.503H113.9C113.855 49.1077 113.686 49.6963 113.403 50.2309C113.12 50.7654 112.729 51.234 112.256 51.6064C111.311 52.4233 110.107 52.868 108.864 52.8589C107.925 52.857 107 52.6214 106.172 52.173C105.343 51.7246 104.637 51.0771 104.114 50.2875L101.166 51.9667ZM104.421 45.5491C104.713 44.4067 105.372 43.3949 106.295 42.6728C107.157 42.0109 108.214 41.6598 109.297 41.6753C110.369 41.6548 111.414 42.0201 112.245 42.7061C113.108 43.436 113.706 44.4365 113.943 45.5491H104.421Z" fill="white"/>
<path id="Vector_8" d="M144.879 38.6328H147.69V42.2738H144.879V48.8798C144.841 49.5767 144.957 50.2733 145.219 50.9192C145.463 51.4135 145.843 51.8255 146.314 52.1052L148.21 53.2136L145.898 56.0234C144.37 55.363 142.969 54.4342 141.761 53.2801C140.972 52.41 140.578 51.1686 140.578 49.5393V42.2738H138.266V38.6328H141.361V33.5896L144.89 34.9862" fill="white"/>
<path id="Vector_9" d="M151.47 43.5651V56.0123H155.469V43.5651H151.47Z" fill="white"/>
<path id="Vector_10" d="M151.47 39.9019V42.3403H155.469V38.5441L151.47 39.9019Z" fill="white"/>
<path id="Vector_11" d="M170.992 44.679C170.556 43.9497 169.957 43.3331 169.245 42.8779C168.513 42.4424 167.677 42.2217 166.828 42.2406C166.147 42.2406 165.472 42.3763 164.843 42.6401C164.213 42.9038 163.641 43.2904 163.159 43.7777C162.677 44.2651 162.295 44.8436 162.035 45.4804C161.774 46.1171 161.64 46.7996 161.64 47.4888C161.64 48.178 161.774 48.8604 162.035 49.4972C162.295 50.1339 162.677 50.7125 163.159 51.1998C163.641 51.6872 164.213 52.0737 164.843 52.3375C165.472 52.6012 166.147 52.737 166.828 52.737C167.672 52.7502 168.502 52.5278 169.228 52.0941C169.948 51.6405 170.553 51.0216 170.992 50.2874L174 52.0941C173.251 53.2779 172.216 54.2487 170.992 54.915C169.724 55.6465 168.288 56.0287 166.828 56.0233C165.573 56.0401 164.326 55.8027 163.163 55.3251C162.105 54.886 161.149 54.2314 160.352 53.402C159.593 52.6052 158.999 51.6632 158.604 50.6311C157.808 48.6136 157.808 46.3639 158.604 44.3465C158.996 43.3133 159.591 42.3708 160.352 41.5755C161.147 40.7445 162.104 40.0896 163.163 39.6525C164.325 39.1702 165.572 38.9308 166.828 38.9487C168.283 38.9083 169.722 39.2663 170.992 39.985C172.192 40.7085 173.219 41.6905 174 42.8613L170.992 44.679Z" fill="white"/>
</g>
</g>
</g>
<defs>
<clipPath id="clip0_620_4112">
<rect width="174" height="61" fill="white"/>
</clipPath>
</defs>
</svg>
