<svg width="195" height="184" viewBox="0 0 195 184" fill="none" xmlns="http://www.w3.org/2000/svg">
<path d="M11.4394 150.297H81.9718V164.379H74.2627C73.268 164.379 72.3665 164.938 71.9313 165.809L65.6832 178.492C65.279 179.3 65.3412 180.232 65.8075 181.009C66.2738 181.755 67.1131 182.222 68.0145 182.222H126.082C126.983 182.222 127.792 181.755 128.289 181.009C128.755 180.263 128.817 179.3 128.413 178.492L122.165 165.809C121.73 164.938 120.828 164.379 119.834 164.379H112.125V150.297H138.609V172.43C138.609 178.802 143.8 183.994 150.142 183.994H163.633C170.005 183.994 175.197 178.802 175.197 172.43V150.297H182.626C188.936 150.297 194.065 145.168 194.065 138.858V128.413V128.382V128.351V11.4394C194.065 5.12907 188.936 0 182.626 0H11.4394C5.12907 0 0 5.12907 0 11.4394V138.889C0 145.168 5.16015 150.297 11.4394 150.297ZM121.916 177.093H72.18L75.9102 169.57H84.583H109.544H118.217L121.916 177.093ZM87.1631 164.379V150.297H106.964V164.379H87.1631ZM163.633 178.802H150.142C146.629 178.802 143.769 175.943 143.769 172.43V146.38C143.769 145.044 144.173 143.8 144.888 142.775C146.039 141.127 147.966 140.008 150.142 140.008H163.664C167.177 140.008 170.036 142.868 170.036 146.38V147.748V147.779V172.43C170.036 175.943 167.177 178.802 163.633 178.802ZM182.626 145.137H175.103C175.072 144.951 175.01 144.795 175.01 144.609C174.948 144.236 174.886 143.863 174.792 143.521C174.699 143.179 174.606 142.837 174.482 142.495C174.357 142.153 174.233 141.811 174.077 141.5C173.922 141.189 173.736 140.878 173.58 140.568C173.394 140.257 173.207 139.946 172.989 139.666C172.772 139.386 172.554 139.107 172.306 138.858C172.057 138.578 171.839 138.298 171.56 138.05C171.311 137.801 171.031 137.614 170.782 137.397C170.503 137.148 170.192 136.931 169.881 136.713C169.601 136.526 169.321 136.402 169.042 136.247C168.7 136.06 168.358 135.874 167.985 135.718C167.736 135.625 167.425 135.563 167.177 135.47C166.741 135.345 166.337 135.19 165.871 135.097C165.809 135.097 165.747 135.097 165.653 135.065C165.001 134.941 164.348 134.879 163.664 134.879H150.173C149.427 134.879 148.712 134.972 148.028 135.097H147.997C147.5 135.19 147.064 135.345 146.598 135.501C146.349 135.563 146.132 135.625 145.883 135.718C145.51 135.874 145.137 136.091 144.764 136.278C144.484 136.433 144.205 136.558 143.925 136.713C143.614 136.899 143.334 137.148 143.054 137.366C142.775 137.583 142.495 137.801 142.215 138.05C141.966 138.267 141.749 138.516 141.531 138.765C141.251 139.075 141.003 139.355 140.785 139.666C140.599 139.915 140.443 140.163 140.288 140.443C140.07 140.816 139.853 141.189 139.666 141.562C139.542 141.811 139.448 142.091 139.355 142.37C139.2 142.806 139.075 143.21 138.951 143.645C138.889 143.925 138.827 144.205 138.796 144.484C138.765 144.702 138.671 144.919 138.671 145.137H11.4394C7.98891 145.137 5.16015 142.339 5.16015 138.858V130.962H188.874V138.858C188.905 142.339 186.107 145.137 182.626 145.137ZM11.4394 5.16015H182.626C186.076 5.16015 188.905 7.95783 188.905 11.4394V125.833H5.19124V11.4394C5.19124 7.95783 7.98891 5.16015 11.4394 5.16015Z" fill="white"/>
</svg>
