<svg width="184" height="184" viewBox="0 0 184 184" fill="none" xmlns="http://www.w3.org/2000/svg">
<path d="M169.161 23.7419H142.327C130.34 9.25045 112.231 0 92 0C71.7689 0 53.6597 9.25045 41.673 23.7419H14.8387C6.65665 23.7419 0 30.3986 0 38.5806V145.419C0 153.601 6.65665 160.258 14.8387 160.258H56.3871V178.065H44.5161V184H139.484V178.065H127.613V160.258H169.161C177.343 160.258 184 153.601 184 145.419V38.5806C184 30.3986 177.343 23.7419 169.161 23.7419ZM94.9677 44.436C104.037 44.2045 111.638 42.9699 117.864 41.2546C119.932 47.4067 121.324 54.4225 121.609 62.3226H94.9677V44.436ZM94.9677 38.5005V8.66877C100.408 12.9394 109.646 21.7061 115.712 35.6515C110.056 37.1739 103.171 38.2779 94.9677 38.5005ZM89.0323 8.60348V38.5005C80.7908 38.275 73.873 37.1621 68.2046 35.6307C74.2588 21.5606 83.5508 12.8325 89.0323 8.60348ZM89.0323 44.436V62.3226H62.3879C62.6668 54.3987 64.0379 47.383 66.0738 41.2397C72.315 42.964 79.9332 44.2045 89.0323 44.436ZM56.4554 62.3226H32.7965C33.3901 50.416 37.4826 39.4443 44.1006 30.3867C46.6143 32.5413 51.8732 36.3252 60.4084 39.4413C58.2004 46.1128 56.7343 53.731 56.4554 62.3226ZM166.194 68.2581V103.871H17.8065V68.2581H166.194ZM127.545 62.3226C127.263 53.731 125.797 46.1128 123.592 39.4413C132.127 36.3281 137.386 32.5413 139.899 30.3867C146.517 39.4443 150.61 50.416 151.203 62.3226H127.545ZM136.148 25.76C134.172 27.4546 129.465 30.9179 121.482 33.8352C116.095 21.0502 108.204 12.2301 102.156 6.87032C115.57 9.19703 127.426 16.0258 136.148 25.76ZM81.8444 6.87032C75.7961 12.233 67.9049 21.0532 62.5185 33.8352C54.5352 30.9179 49.8254 27.4546 47.8519 25.76C56.5741 16.0258 68.4302 9.19703 81.8444 6.87032ZM14.8387 29.6774H37.3194C31.1286 39.1505 27.324 50.3151 26.7839 62.3226H11.871V109.806H172.129V62.3226H157.216C156.676 50.3151 152.871 39.1505 146.681 29.6774H169.161C174.07 29.6774 178.065 33.672 178.065 38.5806V136.516H5.93548V38.5806C5.93548 33.672 9.93006 29.6774 14.8387 29.6774ZM121.677 178.065H62.3226V160.258H121.677V178.065ZM169.161 154.323H14.8387C9.93006 154.323 5.93548 150.328 5.93548 145.419V142.452H178.065V145.419C178.065 150.328 174.07 154.323 169.161 154.323Z" fill="white"/>
</svg>
