<svg width="33" height="32" viewBox="0 0 33 32" fill="none" xmlns="http://www.w3.org/2000/svg">
<g id="Icon / Twitter">
<path id="Vector" d="M28.2594 8.99703C27.6437 9.81841 26.8994 10.5349 26.0553 11.1188C26.0553 11.3334 26.0553 11.548 26.0553 11.7745C26.0621 15.6709 24.5058 19.4071 21.7353 22.1455C18.9648 24.8838 15.2118 26.3953 11.3179 26.3409C9.06664 26.3485 6.84424 25.8345 4.82478 24.839C4.71588 24.7914 4.64566 24.6838 4.64607 24.5648V24.4337C4.64607 24.2625 4.78476 24.1239 4.95583 24.1239C7.16872 24.0508 9.30266 23.2836 11.0557 21.9305C9.05277 21.8901 7.25062 20.7035 6.42123 18.8789C6.37935 18.7793 6.39239 18.6649 6.45566 18.5772C6.51893 18.4896 6.62328 18.4413 6.731 18.4498C7.33975 18.5109 7.95458 18.4543 8.54192 18.2829C6.3308 17.8239 4.66939 15.9882 4.43161 13.7413C4.42317 13.6335 4.47147 13.5291 4.55907 13.4658C4.64667 13.4025 4.76091 13.3894 4.86052 13.4314C5.45388 13.6933 6.09442 13.8312 6.74292 13.8366C4.80545 12.5649 3.96859 10.1461 4.70563 7.94806C4.78172 7.73448 4.9645 7.5767 5.18682 7.5327C5.40912 7.4887 5.63819 7.56498 5.7898 7.7335C8.40429 10.5162 11.9966 12.1745 15.8093 12.3585C15.7118 11.9688 15.6638 11.5683 15.6664 11.1665C15.7021 9.05977 17.0056 7.18304 18.9666 6.41493C20.9276 5.64684 23.158 6.13937 24.6138 7.66197C25.606 7.47292 26.5653 7.13961 27.4612 6.6726C27.5268 6.63163 27.61 6.63163 27.6757 6.6726C27.7166 6.73825 27.7166 6.8215 27.6757 6.88716C27.2418 7.88084 26.5087 8.71426 25.5788 9.2712C26.3931 9.17676 27.1931 8.98466 27.9616 8.69904C28.0263 8.655 28.1113 8.655 28.176 8.69904C28.2302 8.72383 28.2708 8.77126 28.2868 8.82868C28.3029 8.8861 28.2928 8.94769 28.2594 8.99703Z" fill="#14FFEC"/>
</g>
</svg>
