<svg width="195" height="184" viewBox="0 0 195 184" fill="none" xmlns="http://www.w3.org/2000/svg">
<g opacity="0.25">
<path d="M11.4394 150.297H81.9718V164.379H74.2627C73.268 164.379 72.3665 164.938 71.9313 165.809L65.6832 178.492C65.279 179.3 65.3412 180.232 65.8075 181.009C66.2738 181.755 67.1131 182.222 68.0145 182.222H126.082C126.983 182.222 127.792 181.755 128.289 181.009C128.755 180.263 128.817 179.3 128.413 178.492L122.165 165.809C121.73 164.938 120.828 164.379 119.834 164.379H112.125V150.297H138.609V172.43C138.609 178.802 143.8 183.994 150.142 183.994H163.633C170.005 183.994 175.197 178.802 175.197 172.43V150.297H182.626C188.936 150.297 194.065 145.168 194.065 138.858V128.413V128.382V128.351V11.4394C194.065 5.12907 188.936 0 182.626 0H11.4394C5.12907 0 0 5.12907 0 11.4394V138.889C0 145.168 5.16015 150.297 11.4394 150.297ZM121.916 177.093H72.18L75.9102 169.57H84.583H109.544H118.217L121.916 177.093ZM87.1631 164.379V150.297H106.964V164.379H87.1631ZM163.633 178.802H150.142C146.629 178.802 143.769 175.943 143.769 172.43V146.38C143.769 145.044 144.173 143.8 144.888 142.775C146.039 141.127 147.966 140.008 150.142 140.008H163.664C167.177 140.008 170.036 142.868 170.036 146.38V147.748V147.779V172.43C170.036 175.943 167.177 178.802 163.633 178.802ZM182.626 145.137H175.103C175.072 144.951 175.01 144.795 175.01 144.609C174.948 144.236 174.886 143.863 174.792 143.521C174.699 143.179 174.606 142.837 174.482 142.495C174.357 142.153 174.233 141.811 174.077 141.5C173.922 141.189 173.736 140.878 173.58 140.568C173.394 140.257 173.207 139.946 172.989 139.666C172.772 139.386 172.554 139.107 172.306 138.858C172.057 138.578 171.839 138.298 171.56 138.05C171.311 137.801 171.031 137.614 170.782 137.397C170.503 137.148 170.192 136.931 169.881 136.713C169.601 136.526 169.321 136.402 169.042 136.247C168.7 136.06 168.358 135.874 167.985 135.718C167.736 135.625 167.425 135.563 167.177 135.47C166.741 135.345 166.337 135.19 165.871 135.097C165.809 135.097 165.747 135.097 165.653 135.065C165.001 134.941 164.348 134.879 163.664 134.879H150.173C149.427 134.879 148.712 134.972 148.028 135.097H147.997C147.5 135.19 147.064 135.345 146.598 135.501C146.349 135.563 146.132 135.625 145.883 135.718C145.51 135.874 145.137 136.091 144.764 136.278C144.484 136.433 144.205 136.558 143.925 136.713C143.614 136.899 143.334 137.148 143.054 137.366C142.775 137.583 142.495 137.801 142.215 138.05C141.966 138.267 141.749 138.516 141.531 138.765C141.251 139.075 141.003 139.355 140.785 139.666C140.599 139.915 140.443 140.163 140.288 140.443C140.07 140.816 139.853 141.189 139.666 141.562C139.542 141.811 139.448 142.091 139.355 142.37C139.2 142.806 139.075 143.21 138.951 143.645C138.889 143.925 138.827 144.205 138.796 144.484C138.765 144.702 138.671 144.919 138.671 145.137H11.4394C7.98891 145.137 5.16015 142.339 5.16015 138.858V130.962H188.874V138.858C188.905 142.339 186.107 145.137 182.626 145.137ZM11.4394 5.16015H182.626C186.076 5.16015 188.905 7.95783 188.905 11.4394V125.833H5.19124V11.4394C5.19124 7.95783 7.98891 5.16015 11.4394 5.16015Z" fill="white"/>
<path d="M16.2264 135.594C15.9778 135.345 15.698 135.159 15.3561 135.034C14.4235 134.63 13.3044 134.848 12.5584 135.594C12.3097 135.843 12.1543 136.091 11.9988 136.433C11.8745 136.744 11.7812 137.086 11.7812 137.428C11.7812 137.739 11.8745 138.081 11.9988 138.392C12.1543 138.703 12.3097 138.982 12.5584 139.231C12.8071 139.48 13.1179 139.666 13.3977 139.791C13.7085 139.946 14.0505 140.008 14.3924 140.008C14.7033 140.008 15.0763 139.946 15.3561 139.791C15.6669 139.666 15.9778 139.48 16.2264 139.231C16.4751 138.982 16.6305 138.734 16.786 138.392C16.9103 138.081 17.0036 137.739 17.0036 137.428C17.0036 137.086 16.9103 136.744 16.786 136.433C16.6616 136.091 16.4751 135.843 16.2264 135.594Z" fill="white"/>
<path d="M25.5209 135.594C24.7748 134.848 23.6558 134.63 22.7232 135.034C22.4123 135.159 22.1015 135.345 21.8528 135.594C21.6041 135.843 21.4487 136.091 21.2933 136.433C21.1689 136.744 21.0757 137.086 21.0757 137.428C21.0757 137.739 21.1689 138.081 21.2933 138.392C21.4487 138.703 21.6041 138.982 21.8528 139.231C22.1015 139.48 22.3813 139.666 22.7232 139.791C23.003 139.946 23.376 140.008 23.6868 140.008C24.3707 140.008 25.0546 139.728 25.5209 139.231C25.7696 138.982 25.925 138.734 26.0804 138.392C26.2048 138.081 26.2669 137.739 26.2669 137.428C26.2669 137.086 26.2048 136.744 26.0804 136.433C25.9561 136.091 25.7696 135.843 25.5209 135.594Z" fill="white"/>
<path d="M34.8156 135.594C33.8519 134.63 32.1111 134.63 31.1475 135.594C30.8988 135.843 30.7434 136.091 30.588 136.433C30.4636 136.744 30.3704 137.086 30.3704 137.397C30.3704 138.081 30.6812 138.765 31.1475 139.231C31.6138 139.728 32.2976 140.008 32.9815 140.008C33.6654 140.008 34.3182 139.728 34.8156 139.231C35.2818 138.765 35.5927 138.081 35.5927 137.397C35.5927 137.086 35.4994 136.744 35.3751 136.433C35.2507 136.091 35.0642 135.843 34.8156 135.594Z" fill="white"/>
<path d="M22.5678 115.855H171.622C176.284 115.855 180.108 112.062 180.108 107.368V22.7854C180.108 18.0916 176.316 14.2992 171.622 14.2992H87.7536H22.5678C17.905 14.2992 14.0815 18.0916 14.0815 22.7854V107.368C14.0815 112.062 17.905 115.855 22.5678 115.855ZM174.948 22.7854V31.9245H97.8563L91.9501 19.4593H171.622C173.456 19.4593 174.948 20.9514 174.948 22.7854ZM19.2417 22.7854C19.2417 20.9514 20.7338 19.4593 22.5678 19.4593H86.2304L93.8774 35.6237C94.3126 36.5251 95.2141 37.1157 96.2088 37.1157H174.948V107.4C174.948 109.234 173.456 110.726 171.622 110.726H22.5678C20.7338 110.726 19.2417 109.234 19.2417 107.4V22.7854Z" fill="white"/>
<path d="M155.24 28.2875C155.924 28.2875 156.576 28.0078 157.074 27.5104C157.323 27.2928 157.478 27.013 157.633 26.6711C157.758 26.3602 157.82 26.0183 157.82 25.7075C157.82 25.0236 157.54 24.3397 157.074 23.8734C156.11 22.9098 154.401 22.9098 153.406 23.8734C152.94 24.3397 152.629 25.0236 152.629 25.7075C152.629 26.3913 152.94 27.0441 153.406 27.5104C153.903 28.0078 154.556 28.2875 155.24 28.2875Z" fill="white"/>
<path d="M165.032 28.0699C165.343 28.2254 165.685 28.2875 165.996 28.2875C166.679 28.2875 167.363 28.0078 167.83 27.5415C168.327 27.0441 168.607 26.3913 168.607 25.7075C168.607 25.3655 168.514 25.0236 168.389 24.7127C168.265 24.4019 168.078 24.1221 167.83 23.8734C166.897 22.9098 165.156 22.9098 164.193 23.8734C163.695 24.3397 163.416 24.9925 163.416 25.7075C163.416 26.3913 163.695 27.0441 164.193 27.5415C164.441 27.7902 164.721 27.9456 165.032 28.0699Z" fill="white"/>
<path d="M29.0957 31.0854H80.9148C82.3448 31.0854 83.4949 29.9352 83.4949 28.5053C83.4949 27.0754 82.3448 25.9252 80.9148 25.9252H29.0957C27.6658 25.9252 26.5156 27.0754 26.5156 28.5053C26.5156 29.9352 27.6658 31.0854 29.0957 31.0854Z" fill="white"/>
<path d="M80.2 50.1095C80.0135 50.1406 79.858 50.1716 79.6715 50.2027C79.485 50.2649 79.3607 50.3271 79.2052 50.4203C79.112 50.4514 79.0187 50.4825 78.9566 50.5447C78.8944 50.5758 78.8633 50.6379 78.8322 50.7001C78.7079 50.8244 78.5835 50.9488 78.4592 51.1042C78.3659 51.2285 78.2727 51.3529 78.1794 51.5083C78.1173 51.6637 78.0551 51.7881 78.024 51.9435C77.9618 52.13 77.9307 52.2854 77.9307 52.472C77.9307 52.5341 77.8997 52.5963 77.8997 52.6585V98.8201C77.8997 98.8822 77.9307 98.9444 77.9307 99.0066C77.9307 99.1931 77.9929 99.3485 78.024 99.535C78.0551 99.6905 78.1173 99.8459 78.1794 99.9702C78.2416 100.126 78.3349 100.25 78.4592 100.374C78.5835 100.53 78.6768 100.654 78.8322 100.778C78.8944 100.81 78.9255 100.872 78.9566 100.934C79.0498 100.996 79.1742 101.027 79.2674 101.089C79.3607 101.151 79.4539 101.183 79.5472 101.245C79.8269 101.369 80.1378 101.431 80.4486 101.431H113.741C114.052 101.431 114.363 101.369 114.642 101.245C114.736 101.214 114.829 101.151 114.922 101.089C115.015 101.027 115.14 100.996 115.233 100.934C115.295 100.903 115.326 100.841 115.357 100.778C115.482 100.654 115.606 100.53 115.73 100.374C115.824 100.25 115.917 100.126 116.01 99.9702C116.072 99.8148 116.135 99.6905 116.166 99.535C116.228 99.3485 116.259 99.1931 116.259 99.0066C116.259 98.9444 116.29 98.8822 116.29 98.8201V52.6585C116.29 52.5963 116.259 52.5341 116.259 52.472C116.259 52.2854 116.197 52.13 116.166 51.9435C116.135 51.7881 116.072 51.6326 116.01 51.5083C115.948 51.3529 115.855 51.2285 115.73 51.1042C115.606 50.9488 115.513 50.8244 115.357 50.7001C115.295 50.669 115.264 50.6068 115.233 50.5447C115.171 50.4825 115.078 50.4825 114.984 50.4203C114.829 50.3271 114.674 50.2649 114.518 50.2027C114.332 50.1406 114.176 50.1095 113.99 50.1095C113.896 50.1095 113.803 50.0473 113.71 50.0473H80.4486C80.3554 50.0784 80.2932 50.1095 80.2 50.1095ZM100.281 75.7237L111.161 60.6474V90.8001L100.281 75.7237ZM108.705 96.2089H85.5155L97.1104 80.1378L108.705 96.2089ZM97.1104 71.3096L85.5155 55.2385H108.705L97.1104 71.3096ZM93.9086 75.7237L83.0287 90.8001V60.6474L93.9086 75.7237Z" fill="white"/>
<path d="M129.377 99.535C129.408 99.6905 129.47 99.8459 129.532 99.9702C129.594 100.126 129.688 100.25 129.812 100.374C129.936 100.53 130.03 100.654 130.185 100.778C130.247 100.81 130.278 100.872 130.309 100.934C130.403 100.996 130.527 101.027 130.62 101.089C130.713 101.151 130.807 101.183 130.9 101.245C131.18 101.369 131.491 101.431 131.801 101.431H165.094C165.405 101.431 165.715 101.369 165.995 101.245C166.088 101.214 166.182 101.151 166.275 101.089C166.368 101.027 166.493 100.996 166.586 100.934C166.648 100.903 166.679 100.841 166.71 100.778C166.835 100.654 166.959 100.53 167.083 100.374C167.176 100.25 167.27 100.126 167.363 99.9702C167.425 99.8148 167.487 99.6905 167.518 99.535C167.581 99.3485 167.612 99.1931 167.612 99.0066C167.612 98.9444 167.643 98.8822 167.643 98.8201V52.6585C167.643 52.5963 167.612 52.5341 167.612 52.472C167.612 52.2854 167.549 52.13 167.518 51.9435C167.487 51.7881 167.425 51.6326 167.363 51.5083C167.301 51.3529 167.208 51.2285 167.083 51.1042C166.959 50.9488 166.866 50.8244 166.71 50.7001C166.648 50.669 166.617 50.6068 166.586 50.5447C166.524 50.4825 166.43 50.4825 166.337 50.4203C166.182 50.3271 166.026 50.2649 165.871 50.2027C165.684 50.1406 165.529 50.1095 165.342 50.1095C165.249 50.1095 165.156 50.0473 165.063 50.0473H131.833C131.739 50.0473 131.646 50.0784 131.553 50.1095C131.366 50.1406 131.211 50.1716 131.024 50.2027C130.838 50.2649 130.713 50.3271 130.558 50.4203C130.465 50.4514 130.372 50.4825 130.309 50.5447C130.247 50.5758 130.216 50.6379 130.185 50.7001C130.061 50.8244 129.936 50.9488 129.812 51.1042C129.719 51.2285 129.625 51.3529 129.532 51.5083C129.47 51.6637 129.408 51.7881 129.377 51.9435C129.315 52.13 129.284 52.2854 129.284 52.472C129.284 52.5341 129.252 52.5963 129.252 52.6585V98.8201C129.252 98.8822 129.284 98.9444 129.284 99.0066C129.284 99.1931 129.315 99.3485 129.377 99.535ZM151.634 75.7237L162.514 60.6474V90.8001L151.634 75.7237ZM160.058 96.2089H136.868L148.463 80.1378L160.058 96.2089ZM148.463 71.3096L136.868 55.2385H160.058L148.463 71.3096ZM145.292 75.7237L134.413 90.8001V60.6474L145.292 75.7237Z" fill="white"/>
<path d="M26.64 99.535C26.6711 99.6905 26.7332 99.8459 26.7954 99.9702C26.8576 100.126 26.9508 100.25 27.0752 100.374C27.1995 100.53 27.2928 100.654 27.4482 100.778C27.5104 100.81 27.5414 100.872 27.5725 100.934C27.6658 100.996 27.7901 101.027 27.8834 101.089C27.9766 101.151 28.0699 101.183 28.1631 101.245C28.4429 101.369 28.7538 101.431 29.0646 101.431H62.3569C62.6678 101.431 62.9786 101.369 63.2584 101.245C63.3517 101.214 63.4449 101.151 63.5382 101.089C63.6314 101.027 63.7558 100.996 63.849 100.934C63.9112 100.903 63.9423 100.841 63.9734 100.778C64.0977 100.654 64.222 100.53 64.3464 100.374C64.4396 100.25 64.5329 100.126 64.6262 99.9702C64.6883 99.8148 64.7505 99.6905 64.7816 99.535C64.8438 99.3485 64.8748 99.1931 64.8748 99.0066C64.8748 98.9444 64.9059 98.8822 64.9059 98.8201V52.6585C64.9059 52.5963 64.8748 52.5341 64.8748 52.472C64.8748 52.2854 64.8127 52.13 64.7816 51.9435C64.7505 51.7881 64.6883 51.6326 64.6262 51.5083C64.564 51.3529 64.4707 51.2285 64.3464 51.1042C64.222 50.9488 64.1288 50.8244 63.9734 50.7001C63.9112 50.669 63.8801 50.6068 63.849 50.5447C63.7869 50.4825 63.6936 50.4825 63.6003 50.4203C63.4449 50.3271 63.2895 50.2649 63.1341 50.2027C62.9476 50.1406 62.7921 50.1095 62.6056 50.1095C62.5124 50.1095 62.4191 50.0473 62.3258 50.0473H29.0957C29.0024 50.0473 28.9092 50.0784 28.8159 50.1095C28.6294 50.1406 28.474 50.1716 28.2875 50.2027C28.1321 50.2649 27.9766 50.3271 27.8212 50.4203C27.7279 50.4514 27.6347 50.4825 27.5725 50.5447C27.5104 50.5758 27.4793 50.6379 27.4482 50.7001C27.3238 50.8244 27.1995 50.9488 27.0752 51.1042C26.9819 51.2285 26.8886 51.3529 26.7954 51.5083C26.7332 51.6637 26.6711 51.7881 26.64 51.9435C26.5778 52.13 26.5467 52.2854 26.5467 52.472C26.5467 52.5341 26.5156 52.5963 26.5156 52.6585V98.8201C26.5156 98.8822 26.5467 98.9444 26.5467 99.0066C26.5778 99.1931 26.6089 99.3485 26.64 99.535ZM48.9281 75.7237L59.8079 60.6474V90.8001L48.9281 75.7237ZM57.3211 96.2089H34.1315L45.7263 80.1378L57.3211 96.2089ZM45.7263 71.3096L34.1315 55.2385H57.3211L45.7263 71.3096ZM42.5556 75.7237L31.6758 90.8001V60.6474L42.5556 75.7237Z" fill="white"/>
<path d="M156.887 145.137C155.457 145.137 154.307 146.287 154.307 147.717V154.089C154.307 155.519 155.457 156.67 156.887 156.67C158.317 156.67 159.467 155.519 159.467 154.089V147.717C159.467 146.318 158.317 145.137 156.887 145.137Z" fill="white"/>
</g>
</svg>
