<svg width="186" height="186" viewBox="0 0 186 186" fill="none" xmlns="http://www.w3.org/2000/svg">
<g opacity="0.25">
<path d="M170.156 0H15.4688C6.93928 0 0 6.9533 0 15.5V133.3C0 141.847 6.93928 148.8 15.4688 148.8H76.4775L71.8369 167.4H49.5C47.7892 167.4 46.4062 168.789 46.4062 170.5C46.4062 179.047 53.3455 186 61.875 186H123.75C132.279 186 139.219 179.047 139.219 170.5C139.219 168.789 137.836 167.4 136.125 167.4H113.788L109.147 148.8H170.156C178.686 148.8 185.625 141.847 185.625 133.3V15.5C185.625 6.9533 178.686 0 170.156 0ZM15.4688 6.2H170.156C175.273 6.2 179.438 10.3726 179.438 15.5V124H6.1875V15.5C6.1875 10.3726 10.3517 6.2 15.4688 6.2ZM123.75 179.8H61.875C57.8408 179.8 54.4005 177.208 53.1228 173.6H74.25H111.375H132.502C131.225 177.208 127.784 179.8 123.75 179.8ZM107.412 167.4H78.2131L82.8537 148.8H102.771L107.412 167.4ZM170.156 142.6H105.188H80.4375H15.4688C10.3517 142.6 6.1875 138.427 6.1875 133.3V130.2H179.438V133.3C179.438 138.427 175.273 142.6 170.156 142.6Z" fill="white"/>
<path d="M65.875 87.7083L53.5 100.108C52.2904 101.32 52.2904 103.28 53.5 104.492L65.875 116.892L70.2496 112.508L60.0619 102.3L70.2496 92.0917L65.875 87.7083Z" fill="white"/>
<path d="M99.6283 88.0442L81.0596 112.841L86.009 116.562L104.578 91.7654L99.6283 88.0442Z" fill="white"/>
<path d="M119.75 87.7083L115.375 92.0917L125.563 102.3L115.375 112.508L119.75 116.892L132.125 104.492C133.334 103.28 133.334 101.32 132.125 100.108L119.75 87.7083Z" fill="white"/>
<path d="M61.875 55.8001H66.5837C66.9085 56.7208 67.286 57.626 67.7005 58.5064L64.3717 61.8451C63.79 62.4279 63.4652 63.2153 63.4652 64.0368C63.4652 64.8583 63.79 65.6488 64.3717 66.2285L73.1208 74.9984C74.3304 76.2105 76.2857 76.2105 77.4953 74.9984L80.8273 71.6628C81.7059 72.0813 82.6062 72.4564 83.5282 72.7819V77.5001C83.5282 79.2113 84.9111 80.6001 86.6219 80.6001H98.9969C100.708 80.6001 102.091 79.2113 102.091 77.5001V72.7819C103.013 72.4564 103.913 72.0813 104.792 71.6628L108.123 74.9984C109.333 76.2105 111.288 76.2105 112.498 74.9984L121.247 66.2285C121.829 65.6457 122.154 64.8583 122.154 64.0368C122.154 63.2153 121.829 62.4248 121.247 61.8451L117.918 58.5064C118.336 57.626 118.71 56.7208 119.035 55.8001H123.75C125.461 55.8001 126.844 54.4113 126.844 52.7001V40.3001C126.844 38.5889 125.461 37.2001 123.75 37.2001H119.041C118.716 36.2794 118.339 35.3742 117.924 34.4938L121.253 31.1551C121.835 30.5723 122.16 29.7849 122.16 28.9634C122.16 28.1419 121.835 27.3514 121.253 26.7717L112.504 18.0018C111.295 16.7897 109.339 16.7897 108.13 18.0018L104.798 21.3374C103.916 20.922 103.016 20.5469 102.094 20.2183V15.5001C102.094 13.7889 100.711 12.4001 99 12.4001H86.625C84.9142 12.4001 83.5312 13.7889 83.5312 15.5001V20.2183C82.6093 20.5438 81.709 20.9189 80.8304 21.3374L77.4984 18.0049C76.2888 16.7928 74.3335 16.7928 73.1239 18.0049L64.3748 26.7748C63.7931 27.3576 63.4683 28.145 63.4683 28.9665C63.4683 29.788 63.7931 30.5785 64.3748 31.1582L67.7036 34.4969C67.286 35.3773 66.9116 36.2825 66.5868 37.2032H61.875C60.1642 37.2032 58.7812 38.592 58.7812 40.3032V52.7032C58.7812 54.4113 60.1642 55.8001 61.875 55.8001ZM64.9688 43.4001H68.8731C70.2838 43.4001 71.5151 42.4453 71.8678 41.0751C72.3752 39.1097 73.1517 37.2311 74.1757 35.4951C74.8904 34.2768 74.6955 32.7268 73.6993 31.7286L70.9366 28.9634L75.3112 24.5769L78.0739 27.3421C79.0701 28.3434 80.6231 28.5418 81.8359 27.8195C83.5653 26.7965 85.437 26.0215 87.4015 25.5131C88.7628 25.1628 89.7188 23.9259 89.7188 22.5123V18.6001H95.9062V22.5123C95.9062 23.9259 96.8622 25.1597 98.2266 25.5131C100.191 26.0215 102.063 26.7965 103.792 27.8195C105.002 28.5356 106.558 28.3465 107.554 27.3421L110.317 24.5769L114.691 28.9634L111.929 31.7286C110.933 32.7268 110.735 34.2768 111.452 35.4951C112.476 37.2311 113.253 39.1097 113.76 41.0751C114.113 42.4422 115.344 43.4001 116.755 43.4001H120.656V49.6001H116.752C115.341 49.6001 114.11 50.5549 113.757 51.9251C113.25 53.8905 112.473 55.7691 111.449 57.5051C110.735 58.7234 110.93 60.2734 111.926 61.2716L114.688 64.0368L110.314 68.4233L107.551 65.6581C106.555 64.6568 105.005 64.4615 103.789 65.1807C102.06 66.2037 100.188 66.9787 98.2235 67.4871C96.8622 67.8374 95.9062 69.0743 95.9062 70.4879V74.4001H89.7188V70.4879C89.7188 69.0743 88.7628 67.8405 87.3984 67.4871C85.4339 66.9787 83.5622 66.2037 81.8328 65.1807C80.62 64.4615 79.067 64.6537 78.0708 65.6581L75.3081 68.4233L70.9335 64.0368L73.6962 61.2716C74.6924 60.2734 74.8904 58.7234 74.1727 57.5051C73.1486 55.7691 72.3721 53.8905 71.8647 51.9251C71.512 50.5549 70.2838 49.6001 68.8731 49.6001H64.9688V43.4001Z" fill="white"/>
<path d="M92.8125 62C101.342 62 108.281 55.0467 108.281 46.5C108.281 37.9533 101.342 31 92.8125 31C84.283 31 77.3438 37.9533 77.3438 46.5C77.3438 55.0467 84.283 62 92.8125 62ZM92.8125 37.2C97.9296 37.2 102.094 41.3726 102.094 46.5C102.094 51.6274 97.9296 55.8 92.8125 55.8C87.6954 55.8 83.5312 51.6274 83.5312 46.5C83.5312 41.3726 87.6954 37.2 92.8125 37.2Z" fill="white"/>
<path d="M55.6875 24.8H49.5V31H55.6875V24.8Z" fill="white"/>
<path d="M43.3125 24.8H37.125V31H43.3125V24.8Z" fill="white"/>
<path d="M30.9375 24.8H24.75V31H30.9375V24.8Z" fill="white"/>
<path d="M18.5625 24.8H12.375V31H18.5625V24.8Z" fill="white"/>
<path d="M18.5625 37.2H12.375V43.4H18.5625V37.2Z" fill="white"/>
<path d="M18.5625 49.6001H12.375V55.8001H18.5625V49.6001Z" fill="white"/>
<path d="M18.5625 62H12.375V68.2H18.5625V62Z" fill="white"/>
<path d="M18.5625 74.4001H12.375V80.6001H18.5625V74.4001Z" fill="white"/>
<path d="M18.5625 86.8H12.375V93H18.5625V86.8Z" fill="white"/>
<path d="M18.5625 99.2H12.375V105.4H18.5625V99.2Z" fill="white"/>
<path d="M30.9375 99.2H24.75V105.4H30.9375V99.2Z" fill="white"/>
<path d="M43.3125 99.2H37.125V105.4H43.3125V99.2Z" fill="white"/>
<path d="M148.5 99.2H142.312V105.4H148.5V99.2Z" fill="white"/>
<path d="M160.875 99.2H154.688V105.4H160.875V99.2Z" fill="white"/>
<path d="M173.25 99.2H167.062V105.4H173.25V99.2Z" fill="white"/>
<path d="M173.25 86.8H167.062V93H173.25V86.8Z" fill="white"/>
<path d="M173.25 74.4001H167.062V80.6001H173.25V74.4001Z" fill="white"/>
<path d="M173.25 62H167.062V68.2H173.25V62Z" fill="white"/>
<path d="M173.25 49.6001H167.062V55.8001H173.25V49.6001Z" fill="white"/>
<path d="M173.25 37.2H167.062V43.4H173.25V37.2Z" fill="white"/>
<path d="M173.25 24.8H167.062V31H173.25V24.8Z" fill="white"/>
<path d="M160.875 24.8H154.688V31H160.875V24.8Z" fill="white"/>
<path d="M148.5 24.8H142.312V31H148.5V24.8Z" fill="white"/>
<path d="M136.125 24.8H129.938V31H136.125V24.8Z" fill="white"/>
</g>
</svg>
