<svg width="186" height="186" viewBox="0 0 186 186" fill="none" xmlns="http://www.w3.org/2000/svg">
<path d="M170.156 0H15.4688C6.93928 0 0 6.9533 0 15.5V133.3C0 141.847 6.93928 148.8 15.4688 148.8H76.4775L71.8369 167.4H49.5C47.7892 167.4 46.4062 168.789 46.4062 170.5C46.4062 179.047 53.3455 186 61.875 186H123.75C132.279 186 139.219 179.047 139.219 170.5C139.219 168.789 137.836 167.4 136.125 167.4H113.788L109.147 148.8H170.156C178.686 148.8 185.625 141.847 185.625 133.3V15.5C185.625 6.9533 178.686 0 170.156 0ZM15.4688 6.2H170.156C175.273 6.2 179.438 10.3726 179.438 15.5V124H6.1875V15.5C6.1875 10.3726 10.3517 6.2 15.4688 6.2ZM123.75 179.8H61.875C57.8408 179.8 54.4005 177.208 53.1228 173.6H74.25H111.375H132.502C131.225 177.208 127.784 179.8 123.75 179.8ZM107.412 167.4H78.2131L82.8537 148.8H102.771L107.412 167.4ZM170.156 142.6H105.188H80.4375H15.4688C10.3517 142.6 6.1875 138.427 6.1875 133.3V130.2H179.438V133.3C179.438 138.427 175.273 142.6 170.156 142.6Z" fill="white"/>
</svg>
